<svg width="83" height="123" viewBox="0 0 83 123" fill="none" xmlns="http://www.w3.org/2000/svg">
<path d="M75.5788 0.814219C71.6479 -0.968964 66.9915 0.44533 63.2421 2.47447C59.4323 4.50361 55.8642 7.0861 51.631 7.88546C42.3785 9.60715 33.5493 2.22851 24.1153 2.78191C18.6122 3.08936 13.5928 6.16381 9.60154 9.85316C5.24741 13.9114 1.67947 18.9535 0.409519 24.672C-0.799962 30.3905 0.651474 36.8468 5.0056 40.8436C10.6297 46.0087 19.217 46.1316 26.9577 46.0087C46.0675 45.5782 65.1772 45.2093 84.3475 44.7789V5.79482C83.6218 5.61035 82.8961 5.4259 82.2309 5.11845C79.7515 4.07314 77.9977 1.85953 75.5788 0.814219Z" fill="#E1E4F4"/>
<path d="M71.9503 32.5429V47.7307C69.7128 44.7793 67.8381 41.5818 66.3868 38.1999C66.2053 37.831 65.6006 37.708 65.4796 38.1999C65.4192 38.3844 65.4192 38.5688 65.3587 38.6918C65.2982 39.0607 65.6006 39.3067 65.9029 39.3067C66.931 41.6433 68.1405 43.7954 69.5314 45.9476C67.7776 45.3942 66.0239 43.9799 64.754 42.8116C64.5726 42.6272 64.3911 42.4427 64.2096 42.3197V32.6045C64.2096 31.3747 62.2745 31.3747 62.2745 32.6045V40.1676C61.9721 39.7986 61.7303 39.3682 61.5488 38.9378C61.3069 38.3844 60.4602 38.8763 60.7021 39.4297C61.1254 40.2906 61.6698 41.0284 62.2745 41.7663V42.6271C62.214 42.6886 62.1536 42.7501 62.1536 42.8116C61.8512 44.5333 58.7669 46.009 57.376 46.8699C56.348 47.5463 55.3199 48.0997 54.2314 48.7146C55.5014 46.6854 56.5899 44.5948 57.5575 42.4427C57.7389 42.0123 57.3762 41.5204 56.8924 41.8278C56.469 42.0738 56.4085 42.1967 56.4085 42.6271C55.2595 45.0867 53.929 47.4847 52.4172 49.7598C52.2358 49.8213 52.1754 49.9444 52.1754 50.1288C51.0868 51.7276 49.9377 53.3263 48.6073 54.802V50.4978C50.4215 46.378 51.9334 42.1967 53.1429 37.8925C53.3243 37.2776 52.3567 37.0316 52.2357 37.6465C51.2682 41.2129 50.0587 44.6563 48.6073 48.0997V32.6045C48.6073 31.3747 46.6722 31.3747 46.6722 32.6045V52.0965C42.7414 49.3294 39.8387 45.5786 38.2663 41.0899C38.0849 40.5365 37.1173 40.7825 37.3592 41.3359C38.3268 44.0414 39.7177 46.4395 41.4715 48.5916C39.2944 48.1612 37.4801 46.009 35.9683 44.5333C35.545 44.1028 34.4564 43.1805 33.5493 42.2582V32.5429C33.5493 31.3131 31.6142 31.3131 31.6142 32.5429V46.1935C29.9209 42.7501 28.7719 39.1223 28.1067 35.3715C28.409 34.6336 28.6509 33.9572 28.9532 33.2193C29.1951 32.6659 28.2276 32.42 28.0461 32.9734L27.8648 33.4652C27.8044 32.9733 27.7439 32.543 27.6834 32.051C27.6229 31.4362 26.6553 31.4362 26.7157 32.051C26.8367 33.1578 26.9576 34.2031 27.139 35.2484C26.5948 36.6012 26.1111 37.954 25.5668 39.2452C25.0225 38.1999 24.5992 37.1546 24.3573 36.0478V32.4814C24.3573 31.2517 22.4222 31.2517 22.4222 32.4814V52.3424C18.6123 46.6854 15.4071 40.598 12.9882 34.2646C12.7463 33.7112 11.8392 33.9572 12.0811 34.5106C13.7139 38.8148 15.649 42.9346 17.947 46.9314C13.4719 42.3197 9.60168 37.2161 6.39655 31.7436C6.09418 31.1902 5.24746 31.6821 5.54983 32.2355C9.42017 38.8763 14.1977 44.8408 19.8218 50.1903L19.8821 50.2518C20.7288 51.5431 21.5755 52.8344 22.4222 54.1256V70.7277C22.4222 71.9575 24.3573 71.9575 24.3573 70.7277V44.7178C24.4783 44.6563 24.5387 44.5948 24.5991 44.4718C24.962 43.488 25.3854 42.5042 25.7482 41.5204C27.381 44.0414 29.6185 46.378 31.6142 48.3456V70.6661C31.6142 71.8959 33.5493 71.8959 33.5493 70.6661V43.365C34.275 44.1644 35.0612 44.9637 35.8474 45.7016C37.6616 47.4233 39.6573 49.6369 42.3786 49.5754C43.6486 50.9282 45.0998 52.158 46.6722 53.2033V70.6661C46.6722 71.8959 48.6073 71.8959 48.6073 70.6661V56.1547C50.2401 54.31 51.752 52.3424 53.0825 50.3133C55.2595 49.145 57.4365 47.8537 59.4926 46.4395C60.3393 45.8246 61.4278 45.2712 62.214 44.4103V70.6046C62.214 71.8344 64.1492 71.8344 64.1492 70.6046V43.488C64.3911 43.6725 64.6329 43.9184 64.9353 44.1029C66.4471 45.2712 68.08 46.6239 70.0152 46.9314C70.0757 46.9314 70.1362 46.9314 70.1966 46.9314C70.6804 47.6077 71.1642 48.3456 71.7085 49.022C71.769 49.0835 71.8294 49.145 71.9503 49.145V70.6046C71.9503 71.8344 73.8855 71.8344 73.8855 70.6046V32.4814C73.8855 31.3131 71.9503 31.3131 71.9503 32.5429ZM24.3573 42.3812V38.9993C24.5992 39.4912 24.8411 39.9831 25.1435 40.475C24.8411 41.0899 24.5992 41.7663 24.3573 42.3812ZM26.1715 40.4135L27.5019 37.0931C28.1067 40.0446 29.0742 42.8731 30.3442 45.6401C28.7719 44.0414 27.3205 42.3197 26.1715 40.4135Z" fill="#D0D5F4"/>
<path d="M51.3289 20.9209C40.8669 20.7979 30.4049 20.6749 20.0638 21.8432C16.1935 22.2736 12.2627 22.8885 8.99707 24.9791C5.73147 27.0698 3.43354 30.8821 4.40113 34.5714C5.55014 39.2446 11.2347 41.4582 16.1936 41.3352C21.5153 41.2122 26.5951 39.2446 31.7354 38.0763C36.9361 36.908 42.7417 36.539 47.2168 39.306C49.1519 40.5358 50.7847 42.2575 52.9618 42.9954C55.3203 43.7333 57.8601 43.1799 60.2791 42.6265C68.2616 40.6588 76.3046 38.7527 84.2872 36.785V34.018C78.1793 28.8529 71.6482 23.9338 63.7866 22.0891C59.7348 21.0438 55.5016 20.9824 51.3289 20.9209Z" fill="#E1E4F4"/>
<path d="M39.6575 37.4622C36.9966 37.4622 34.8196 38.7535 34.8196 40.4137C34.8196 42.0124 36.9966 43.3652 39.6575 43.3652C42.3184 43.3652 44.4954 42.0739 44.4954 40.4137C44.4954 38.7535 42.3184 37.4622 39.6575 37.4622Z" fill="#E1E4F4"/>
<path d="M74.6716 53.3261C68.3824 55.2322 66.0843 61.1966 61.0045 61.6885C55.9246 62.1805 51.8125 59.352 47.4583 61.3811C43.0437 63.4102 41.29 66.6077 37.9034 66.7922C34.5169 66.9766 35.0611 65.6238 30.6465 66.3617C26.2319 67.1611 14.5 71.5268 14.5 71.5268H84.3475V53.572C81.3238 52.5267 78.1791 52.2807 74.6716 53.3261Z" fill="#E1E4F4"/>
<path d="M16.6398 115.736C12.588 115.736 9.26196 118.933 9.26196 122.869H24.0177C24.0177 118.933 20.752 115.736 16.6398 115.736Z" fill="#ECEEFA"/>
</svg>
