<svg width="328" height="225" viewBox="0 0 328 225" fill="none" xmlns="http://www.w3.org/2000/svg">
<path d="M109.78 158.793C120.412 158.875 129.365 165.957 132.483 175.644L86.7578 175.156C90.1153 165.55 99.1484 158.712 109.78 158.793Z" fill="#D0D5F4"/>
<path d="M134.721 167.666C139.757 167.748 144.074 171.085 145.593 175.725L123.689 175.481C125.288 170.922 129.685 167.666 134.721 167.666Z" fill="#D0D5F4"/>
<path d="M65.4935 174.503L52.7832 174.34L52.8631 166.525C53.4227 166.444 54.0622 166.362 54.6218 166.362C59.7379 166.525 63.9747 169.863 65.4935 174.503Z" fill="#D0D5F4"/>
<path d="M328 191.513C101.701 189.519 17.7019 224.998 17.7019 224.998L-280 222.407L-279.64 185.998L328 191.513Z" fill="#D0D5F4"/>
<path d="M276.448 191.117C272.994 190.854 279.901 189.196 276.448 189.196C194.138 188.801 171.624 192.935 125.361 197.809C48.9512 205.91 17.5814 216.975 17.5814 216.975L-280 214.472L-279.712 185.953L276.448 191.117Z" fill="#ECEEFA"/>
<path d="M35.3995 59.4275L79.2508 37.9559C80.221 37.4949 81.3852 37.429 82.42 37.8901L83.3902 38.3511L82.42 190.628L34.9468 189.245L35.3995 59.4275Z" fill="#E1E4F4"/>
<path d="M80.8678 39.6036L82.4201 190.563H112.042L109.779 52.0519C109.779 51.0639 109.197 50.2077 108.356 49.8125L83.0022 38.0888C81.9673 37.6936 80.8031 38.4839 80.8678 39.6036Z" fill="#ECEEFA"/>
<path d="M132.545 61.8651L129.893 62.5237L109.843 55.4763L112.042 190.563H137.913L135.973 62.392L135.585 62.1944C134.615 61.7334 133.58 61.6016 132.545 61.8651Z" fill="#E1E4F4"/>
<path d="M157.834 190.628L154.083 72.0078C154.083 71.3492 153.695 70.8223 153.113 70.5588L135.844 62.3258C135.068 61.9307 134.162 62.5234 134.227 63.4455L137.914 190.694H157.834V190.628Z" fill="#ECEEFA"/>
<path d="M64.4395 68.8457L61.335 70.0971V74.3124L64.5042 72.9292L64.4395 68.8457Z" fill="#D0D5F4"/>
<path d="M61.3354 79.2527L64.5047 77.8696V73.6543L61.3354 74.9716V79.2527Z" fill="#D0D5F4"/>
<path d="M61.335 74.3138V74.9724L64.5042 73.6552V72.9307L61.335 74.3138Z" fill="#E1E4F4"/>
<path d="M61.3354 130.759L64.7634 129.968V125.621L61.3354 126.412V130.759Z" fill="#D0D5F4"/>
<path d="M64.7634 120.878L61.3354 121.735V125.818L64.7634 125.028V120.878Z" fill="#D0D5F4"/>
<path d="M64.7634 125.62V125.027L61.3354 125.817V126.41L64.7634 125.62Z" fill="#E1E4F4"/>
<path d="M64.634 103.359L61.3354 104.412V108.43L64.634 107.508V103.359Z" fill="#D0D5F4"/>
<path d="M61.3354 113.437L64.6987 112.449V108.168L61.3354 109.09V113.437Z" fill="#D0D5F4"/>
<path d="M64.6987 108.168L64.634 107.51L61.3354 108.432V109.09L64.6987 108.168Z" fill="#E1E4F4"/>
<path d="M64.5693 86.1694L61.3354 87.355V91.3068L64.5693 90.1871V86.1694Z" fill="#D0D5F4"/>
<path d="M61.3354 96.246L64.5693 95.1264V90.8452L61.3354 91.9649V96.246Z" fill="#D0D5F4"/>
<path d="M61.3354 91.3064V91.9651L64.5693 90.8454V90.1868L61.3354 91.3064Z" fill="#E1E4F4"/>
<path d="M54.3497 123.58L51.5039 124.37V128.059L54.3497 127.4V123.58Z" fill="#D0D5F4"/>
<path d="M51.5039 133.063L54.3497 132.405V128.058L51.5039 128.716V133.063Z" fill="#D0D5F4"/>
<path d="M54.3497 128.058V127.399L51.5039 128.058V128.716L54.3497 128.058Z" fill="#E1E4F4"/>
<path d="M51.5044 150.056L54.3502 149.463V145.05L51.5044 145.643V150.056Z" fill="#D0D5F4"/>
<path d="M54.3497 140.705L51.5039 141.364V144.986L54.3497 144.459V140.705Z" fill="#D0D5F4"/>
<path d="M51.5039 144.985V145.644L54.3497 145.051V144.458L51.5039 144.985Z" fill="#E1E4F4"/>
<path d="M51.5039 116.269L54.3497 115.413L54.285 111.066L51.5039 111.922V116.269Z" fill="#D0D5F4"/>
<path d="M54.285 106.652L51.5039 107.508V111.262L54.285 110.472V106.652Z" fill="#D0D5F4"/>
<path d="M54.285 111.065V110.472L51.5039 111.263V111.921L54.285 111.065Z" fill="#E1E4F4"/>
<path d="M64.828 138.333L61.3354 139.123V143.075L64.828 142.417V138.333Z" fill="#D0D5F4"/>
<path d="M61.3354 148.081L64.8927 147.422L64.828 143.075L61.3354 143.734V148.081Z" fill="#D0D5F4"/>
<path d="M61.3354 143.075V143.734L64.828 143.075V142.416L61.3354 143.075Z" fill="#E1E4F4"/>
<path d="M51.5044 66.803L54.2208 65.6174V61.468L51.5044 62.7194V66.803Z" fill="#D0D5F4"/>
<path d="M54.2203 56.9255L51.5039 58.2428V62.0629L54.2203 60.8115V56.9255Z" fill="#D0D5F4"/>
<path d="M54.2203 61.4706V60.812L51.5039 62.0634V62.7221L54.2203 61.4706Z" fill="#E1E4F4"/>
<path d="M61.3354 62.524L64.44 61.2068L64.3753 56.728L61.3354 58.1112V62.524Z" fill="#D0D5F4"/>
<path d="M64.3753 51.7886L61.3354 53.3034V57.4529L64.3753 56.0039V51.7886Z" fill="#D0D5F4"/>
<path d="M64.3753 56.7277V56.0032L61.3354 57.4522V58.1108L64.3753 56.7277Z" fill="#E1E4F4"/>
<path d="M51.5039 83.402L54.285 82.2165V78.0012L51.5039 79.1868V83.402Z" fill="#D0D5F4"/>
<path d="M54.2203 73.1279L51.5039 74.3135V78.4629L54.285 77.3432L54.2203 73.1279Z" fill="#D0D5F4"/>
<path d="M51.5039 78.4625V79.187L54.285 78.0014V77.3428L51.5039 78.4625Z" fill="#E1E4F4"/>
<path d="M51.5039 99.6724L54.285 98.6845V94.4033L51.5039 95.3913V99.6724Z" fill="#D0D5F4"/>
<path d="M54.285 89.9883L51.5039 91.0421V94.7305L54.285 93.7425V89.9883Z" fill="#D0D5F4"/>
<path d="M51.5039 94.7314V95.39L54.285 94.402V93.7434L51.5039 94.7314Z" fill="#E1E4F4"/>
<path d="M104.798 81.229L104.604 71.086L101.694 69.9663L101.823 80.241L104.798 81.229Z" fill="#F7F7FA"/>
<path d="M98.0068 68.582L98.2009 78.9885L101.176 79.9765L101.047 69.7676L98.0068 68.582Z" fill="#F7F7FA"/>
<path d="M98.2656 85.7729L98.4597 95.9818L101.435 96.8381L101.305 86.7609L98.2656 85.7729Z" fill="#F7F7FA"/>
<path d="M105.186 97.8924L104.992 87.9469L101.888 86.959L102.082 97.0361L105.186 97.8924Z" fill="#F7F7FA"/>
<path d="M104.41 64.103L104.216 54.6845L101.435 53.4331L101.564 62.9175L104.41 64.103Z" fill="#F7F7FA"/>
<path d="M97.8135 51.854L97.9428 61.4701L100.918 62.7215L100.789 53.1713L97.8135 51.854Z" fill="#F7F7FA"/>
<path d="M106.545 157.301L102.923 157.037L103.117 167.246L106.803 167.312L106.545 157.301Z" fill="#F7F7FA"/>
<path d="M99.3652 156.84L99.4946 167.18L102.47 167.246L102.34 157.037L99.3652 156.84Z" fill="#F7F7FA"/>
<path d="M105.574 114.818L105.38 105.202L102.146 104.412L102.341 114.094L105.574 114.818Z" fill="#F7F7FA"/>
<path d="M98.5249 103.49L98.7189 113.238L101.694 113.897L101.565 104.215L98.5249 103.49Z" fill="#F7F7FA"/>
<path d="M105.963 132.009L105.769 122.327L102.405 121.669L102.599 131.417L105.963 132.009Z" fill="#F7F7FA"/>
<path d="M98.7832 120.945L98.9772 130.824L101.952 131.351L101.823 121.538L98.7832 120.945Z" fill="#F7F7FA"/>
<path d="M99.1064 138.596L99.2358 148.805L102.211 149.134L102.082 138.991L99.1064 138.596Z" fill="#F7F7FA"/>
<path d="M106.351 149.596L106.157 139.584L102.664 139.123L102.858 149.2L106.351 149.596Z" fill="#F7F7FA"/>
<path d="M94.9676 156.511L91.3457 156.248L91.4104 166.984L95.0323 167.05L94.9676 156.511Z" fill="#F7F7FA"/>
<path d="M87.3354 155.984L87.4648 166.918L90.7633 166.984V156.182L87.3354 155.984Z" fill="#F7F7FA"/>
<path d="M86.3003 64.1709L86.4297 74.9726L90.3103 76.2898L90.2456 65.6199L86.3003 64.1709Z" fill="#F7F7FA"/>
<path d="M94.3205 77.6719L94.2558 67.1337L90.8926 65.8823L90.9573 76.4864L94.3205 77.6719Z" fill="#F7F7FA"/>
<path d="M87.0767 136.95L87.206 147.488L90.6986 147.883L90.6339 137.477L87.0767 136.95Z" fill="#F7F7FA"/>
<path d="M94.9027 148.344L94.838 138.004L91.2808 137.542V147.949L94.9027 148.344Z" fill="#F7F7FA"/>
<path d="M94.4496 94.7968L94.3849 84.5221L90.957 83.4683L91.0217 93.8089L94.4496 94.7968Z" fill="#F7F7FA"/>
<path d="M86.4946 82.0195L86.624 92.5577L90.4399 93.6774L90.3753 83.2051L86.4946 82.0195Z" fill="#F7F7FA"/>
<path d="M94.1911 59.9548L94.0617 50.2728L90.7632 48.8896L90.8279 58.5716L94.1911 59.9548Z" fill="#F7F7FA"/>
<path d="M86.1064 46.8486L86.1711 56.7282L90.2458 58.3748L90.1811 48.5611L86.1064 46.8486Z" fill="#F7F7FA"/>
<path d="M94.5795 112.25L94.5148 102.437L91.0869 101.514L91.1516 111.46L94.5795 112.25Z" fill="#F7F7FA"/>
<path d="M86.6885 100.396L86.8178 110.407L90.5044 111.263L90.4398 101.383L86.6885 100.396Z" fill="#F7F7FA"/>
<path d="M94.7733 130.101L94.6439 120.089L91.1514 119.365L91.216 129.442L94.7733 130.101Z" fill="#F7F7FA"/>
<path d="M86.8828 118.507L87.0122 128.716L90.5694 129.374V119.231L86.8828 118.507Z" fill="#F7F7FA"/>
<path d="M138.301 69.373L138.431 77.8695L140.824 78.8574L140.63 70.4269L138.301 69.373Z" fill="#F7F7FA"/>
<path d="M143.475 79.9118L143.216 71.5471L141.082 70.625L141.276 79.0556L143.475 79.9118Z" fill="#F7F7FA"/>
<path d="M139.207 129.111L139.336 137.871L142.118 138.332L141.923 129.638L139.207 129.111Z" fill="#F7F7FA"/>
<path d="M145.092 138.86L144.834 130.232L142.376 129.705L142.57 138.465L145.092 138.86Z" fill="#F7F7FA"/>
<path d="M145.674 160.069L143.022 159.871L143.217 168.104L145.868 168.17L145.674 160.069Z" fill="#F7F7FA"/>
<path d="M139.725 159.673L139.854 168.038L142.764 168.103L142.57 159.87L139.725 159.673Z" fill="#F7F7FA"/>
<path d="M138.753 98.8145L138.883 107.574L141.47 108.365L141.276 99.6707L138.753 98.8145Z" fill="#F7F7FA"/>
<path d="M144.252 109.156L143.993 100.527L141.729 99.803L141.924 108.497L144.252 109.156Z" fill="#F7F7FA"/>
<path d="M139.012 113.897L139.142 122.723L141.793 123.316L141.599 114.556L139.012 113.897Z" fill="#F7F7FA"/>
<path d="M144.639 124.04L144.445 115.28L142.052 114.687L142.246 123.447L144.639 124.04Z" fill="#F7F7FA"/>
<path d="M139.465 144.063L139.595 153.152L142.441 153.481L142.246 144.458L139.465 144.063Z" fill="#F7F7FA"/>
<path d="M145.48 153.811L145.222 144.853L142.699 144.524L142.893 153.547L145.48 153.811Z" fill="#F7F7FA"/>
<path d="M138.495 83.9292L138.624 92.8208L141.147 93.677L140.953 84.8513L138.495 83.9292Z" fill="#F7F7FA"/>
<path d="M143.864 94.5993L143.605 85.8394L141.406 85.0491L141.6 93.8748L143.864 94.5993Z" fill="#F7F7FA"/>
<path d="M146.709 87.0251L146.903 95.6533L149.361 96.5095L149.103 87.9472L146.709 87.0251Z" fill="#F7F7FA"/>
<path d="M152.013 97.4308L151.754 88.9344L149.62 88.144L149.814 96.6405L152.013 97.4308Z" fill="#F7F7FA"/>
<path d="M148.456 160.265L148.65 168.235L151.301 168.3L151.043 160.463L148.456 160.265Z" fill="#F7F7FA"/>
<path d="M153.954 168.366L153.76 160.66L151.561 160.463L151.755 168.3L153.954 168.366Z" fill="#F7F7FA"/>
<path d="M146.386 72.8645L146.58 81.1633L148.973 82.1513L148.779 73.9183L146.386 72.8645Z" fill="#F7F7FA"/>
<path d="M151.625 83.2042L151.366 75.0371L149.232 74.115L149.426 82.348L151.625 83.2042Z" fill="#F7F7FA"/>
<path d="M147.744 130.824L147.938 139.387L150.525 139.848L150.267 131.351L147.744 130.824Z" fill="#F7F7FA"/>
<path d="M153.177 140.31L152.983 131.879L150.784 131.418L150.978 139.914L153.177 140.31Z" fill="#F7F7FA"/>
<path d="M153.565 154.666L153.371 145.972L151.107 145.709L151.366 154.469L153.565 154.666Z" fill="#F7F7FA"/>
<path d="M148.067 145.249L148.326 154.14L150.913 154.404L150.654 145.644L148.067 145.249Z" fill="#F7F7FA"/>
<path d="M152.4 111.46L152.142 103.161L150.007 102.437L150.201 110.867L152.4 111.46Z" fill="#F7F7FA"/>
<path d="M147.033 101.514L147.227 110.011L149.749 110.735L149.49 102.305L147.033 101.514Z" fill="#F7F7FA"/>
<path d="M152.789 125.95L152.53 117.387L150.331 116.795L150.59 125.423L152.789 125.95Z" fill="#F7F7FA"/>
<path d="M147.421 116.071L147.615 124.699L150.137 125.292L149.879 116.729L147.421 116.071Z" fill="#F7F7FA"/>
<path d="M90.7632 156.182V166.984H91.41L91.3453 156.248L90.7632 156.182Z" fill="#F2F3F7"/>
<path d="M90.8924 65.8821L90.2456 65.6187L90.3103 76.2886L90.9571 76.4862L90.8924 65.8821Z" fill="#F2F3F7"/>
<path d="M91.2811 137.542L90.6343 137.476L90.699 147.883L91.2811 147.949V137.542Z" fill="#F2F3F7"/>
<path d="M90.9571 83.4688L90.375 83.2053L90.4397 93.6776L91.0218 93.8094L90.9571 83.4688Z" fill="#F2F3F7"/>
<path d="M90.7632 48.8901L90.1812 48.5608L90.2458 58.3745L90.8279 58.5721L90.7632 48.8901Z" fill="#F2F3F7"/>
<path d="M91.0867 101.516L90.4399 101.384L90.5046 111.263L91.1514 111.461L91.0867 101.516Z" fill="#F2F3F7"/>
<path d="M91.1514 119.363L90.5693 119.232V129.375L91.2161 129.441L91.1514 119.363Z" fill="#F2F3F7"/>
<path d="M101.694 69.9657L101.047 69.7681L101.176 79.9769L101.823 80.2404L101.694 69.9657Z" fill="#F2F3F7"/>
<path d="M101.888 86.9591L101.306 86.7615L101.435 96.8386L102.082 97.0362L101.888 86.9591Z" fill="#F2F3F7"/>
<path d="M101.435 53.4348L100.789 53.1714L100.918 62.7216L101.565 62.9192L101.435 53.4348Z" fill="#F2F3F7"/>
<path d="M102.34 157.037L102.47 167.246H103.116L102.922 157.037H102.34Z" fill="#F2F3F7"/>
<path d="M102.147 104.414L101.564 104.216L101.694 113.898L102.341 114.096L102.147 104.414Z" fill="#F2F3F7"/>
<path d="M102.405 121.669L101.823 121.537L101.952 131.351L102.599 131.417L102.405 121.669Z" fill="#F2F3F7"/>
<path d="M102.664 139.123L102.082 138.991L102.211 149.134L102.858 149.2L102.664 139.123Z" fill="#F2F3F7"/>
<path d="M141.082 70.6234L140.629 70.4258L140.823 78.8563L141.276 79.0539L141.082 70.6234Z" fill="#F2F3F7"/>
<path d="M142.376 129.705L141.923 129.639L142.117 138.333L142.57 138.464L142.376 129.705Z" fill="#F2F3F7"/>
<path d="M142.569 159.871L142.763 168.104H143.216L143.022 159.871H142.569Z" fill="#F2F3F7"/>
<path d="M141.729 99.8024L141.276 99.6707L141.47 108.365L141.923 108.496L141.729 99.8024Z" fill="#F2F3F7"/>
<path d="M142.052 114.688L141.6 114.556L141.794 123.316L142.246 123.448L142.052 114.688Z" fill="#F2F3F7"/>
<path d="M142.699 144.525L142.247 144.459L142.441 153.482L142.893 153.548L142.699 144.525Z" fill="#F2F3F7"/>
<path d="M141.406 85.0484L140.953 84.8508L141.147 93.6766L141.6 93.8742L141.406 85.0484Z" fill="#F2F3F7"/>
<path d="M149.62 88.1449L149.103 87.9473L149.361 96.5095L149.814 96.6413L149.62 88.1449Z" fill="#F2F3F7"/>
<path d="M151.56 160.463H151.042L151.301 168.3H151.754L151.56 160.463Z" fill="#F2F3F7"/>
<path d="M149.232 74.1158L148.779 73.9182L148.973 82.1512L149.426 82.3488L149.232 74.1158Z" fill="#F2F3F7"/>
<path d="M150.784 131.417L150.267 131.351L150.525 139.847L150.978 139.913L150.784 131.417Z" fill="#F2F3F7"/>
<path d="M151.107 145.709L150.654 145.644L150.913 154.403L151.366 154.469L151.107 145.709Z" fill="#F2F3F7"/>
<path d="M150.008 102.437L149.491 102.305L149.749 110.736L150.202 110.867L150.008 102.437Z" fill="#F2F3F7"/>
<path d="M150.331 116.794L149.878 116.729L150.137 125.291L150.59 125.423L150.331 116.794Z" fill="#F2F3F7"/>
<path d="M129.893 62.5223L130.863 98.3522L110.425 91.8316L109.778 53.4331L129.893 62.5223Z" fill="#D0D5F4"/>
<path d="M110.425 91.8323L130.863 98.3528L127.629 99.6701L110.425 94.2034V91.8323Z" fill="#D0D5F4"/>
<path d="M127.694 108.76L127.629 99.6709L120.126 97.2998L120.32 106.521L127.694 108.76Z" fill="#D0D5F4"/>
<path d="M110.425 94.2041L110.619 103.491L119.674 106.323L119.48 97.1021L110.425 94.2041Z" fill="#D0D5F4"/>
<path d="M110.684 109.682L110.878 121.406L120.062 123.645L119.803 112.185L110.684 109.682Z" fill="#D0D5F4"/>
<path d="M127.953 125.489L127.823 114.358L120.45 112.383L120.709 123.777L127.953 125.489Z" fill="#D0D5F4"/>
<path d="M128.146 139.122L128.017 129.374L120.773 127.793L121.032 138.134L128.146 139.122Z" fill="#D0D5F4"/>
<path d="M110.942 125.687L111.136 136.752L120.385 138.003L120.191 127.663L110.942 125.687Z" fill="#D0D5F4"/>
<path d="M111.266 142.351L111.395 152.625L120.773 153.218L120.514 143.602L111.266 142.351Z" fill="#D0D5F4"/>
<path d="M128.341 153.678L128.211 144.655L121.162 143.733L121.356 153.217L128.341 153.678Z" fill="#D0D5F4"/>
<path d="M120.127 97.2989L119.48 97.1013L119.674 106.322L120.321 106.52L120.127 97.2989Z" fill="#E1E4F4"/>
<path d="M120.45 112.382L119.804 112.184L120.062 123.644L120.709 123.776L120.45 112.382Z" fill="#E1E4F4"/>
<path d="M120.774 127.794L120.191 127.662L120.385 138.002L121.032 138.134L120.774 127.794Z" fill="#E1E4F4"/>
<path d="M121.161 143.733L120.515 143.602L120.773 153.218H121.355L121.161 143.733Z" fill="#E1E4F4"/>
<path d="M117.346 63.2471L109.908 60.0198L110.102 72.0728L117.669 74.9708L117.346 63.2471Z" fill="#E1E4F4"/>
<path d="M129.182 79.3197L128.859 68.3205L119.933 64.3687L120.256 75.9607L129.182 79.3197Z" fill="#E1E4F4"/>
<path d="M120.644 92.0311L129.699 95.0608L129.376 82.876L120.321 79.3853L120.644 92.0311Z" fill="#E1E4F4"/>
<path d="M110.167 75.4995L110.361 88.5405L118.057 91.1751L117.734 78.3975L110.167 75.4995Z" fill="#E1E4F4"/>
<path d="M94.7081 170.21H94.2554V187.928H94.7081V170.21Z" fill="#F7F7FA"/>
<path d="M96.067 170.21H95.6143V187.928H96.067V170.21Z" fill="#F7F7FA"/>
<path d="M97.4244 170.21H96.9717V187.928H97.4244V170.21Z" fill="#F7F7FA"/>
<path d="M98.8477 170.21H98.395V187.928H98.8477V170.21Z" fill="#F7F7FA"/>
<path d="M100.206 170.21H99.7529V187.928H100.206V170.21Z" fill="#F7F7FA"/>
<path d="M101.564 170.21H101.111V187.928H101.564V170.21Z" fill="#F7F7FA"/>
<path d="M102.987 170.21H102.534V187.928H102.987V170.21Z" fill="#F7F7FA"/>
<path d="M104.345 170.21H103.893V187.928H104.345V170.21Z" fill="#F7F7FA"/>
<path d="M105.703 170.21H105.25V187.928H105.703V170.21Z" fill="#F7F7FA"/>
<path d="M107.127 170.21H106.674V187.928H107.127V170.21Z" fill="#F7F7FA"/>
<path d="M108.485 170.21H108.032V187.928H108.485V170.21Z" fill="#F7F7FA"/>
<path d="M109.843 170.21H109.39V187.928H109.843V170.21Z" fill="#F7F7FA"/>
<path d="M78.151 170.21H77.6982V187.928H78.151V170.21Z" fill="#F7F7FA"/>
<path d="M79.5094 170.21H79.0566V187.928H79.5094V170.21Z" fill="#F7F7FA"/>
<path d="M80.8673 170.21H80.4146V187.928H80.8673V170.21Z" fill="#F7F7FA"/>
<path d="M82.4197 170.21H81.7729V187.928H82.4197V170.21Z" fill="#F7F7FA"/>
<path d="M83.6485 170.21H83.1958V187.928H83.6485V170.21Z" fill="#F7F7FA"/>
<path d="M85.0069 170.21H84.5542V187.928H85.0069V170.21Z" fill="#F7F7FA"/>
<path d="M86.4293 170.21H85.9766V187.928H86.4293V170.21Z" fill="#F7F7FA"/>
<path d="M87.7882 170.21H87.3354V187.928H87.7882V170.21Z" fill="#F7F7FA"/>
<path d="M89.1461 170.21H88.6934V187.928H89.1461V170.21Z" fill="#F7F7FA"/>
<path d="M90.569 170.21H90.1162V187.928H90.569V170.21Z" fill="#F7F7FA"/>
<path d="M91.9274 170.21H91.4746V187.928H91.9274V170.21Z" fill="#F7F7FA"/>
<path d="M93.2853 170.21H92.8325V187.928H93.2853V170.21Z" fill="#F7F7FA"/>
<path d="M61.5934 170.21H61.1406V187.928H61.5934V170.21Z" fill="#F7F7FA"/>
<path d="M62.9518 170.21H62.499V187.928H62.9518V170.21Z" fill="#F7F7FA"/>
<path d="M64.3097 170.21H63.8569V187.928H64.3097V170.21Z" fill="#F7F7FA"/>
<path d="M65.733 170.21H65.2803V187.928H65.733V170.21Z" fill="#F7F7FA"/>
<path d="M67.0909 170.21H66.6382V187.928H67.0909V170.21Z" fill="#F7F7FA"/>
<path d="M68.4493 170.21H67.9966V187.928H68.4493V170.21Z" fill="#F7F7FA"/>
<path d="M69.8722 170.21H69.4194V187.928H69.8722V170.21Z" fill="#F7F7FA"/>
<path d="M71.2306 170.21H70.7778V187.928H71.2306V170.21Z" fill="#F7F7FA"/>
<path d="M72.5885 170.21H72.1357V187.928H72.5885V170.21Z" fill="#F7F7FA"/>
<path d="M74.0113 170.21H73.5586V187.928H74.0113V170.21Z" fill="#F7F7FA"/>
<path d="M75.3697 170.21H74.917V187.928H75.3697V170.21Z" fill="#F7F7FA"/>
<path d="M76.7281 170.21H76.2754V187.928H76.7281V170.21Z" fill="#F7F7FA"/>
<path d="M111.201 170.21H110.748V187.928H111.201V170.21Z" fill="#F7F7FA"/>
<path d="M112.624 170.21H112.171V187.928H112.624V170.21Z" fill="#F7F7FA"/>
<path d="M113.983 170.21H113.53V187.928H113.983V170.21Z" fill="#F7F7FA"/>
<path d="M115.34 170.21H114.887V187.928H115.34V170.21Z" fill="#F7F7FA"/>
<path d="M116.763 170.21H116.311V187.928H116.763V170.21Z" fill="#F7F7FA"/>
<path d="M118.121 170.21H117.668V187.928H118.121V170.21Z" fill="#F7F7FA"/>
<path d="M119.48 170.21H119.027V187.928H119.48V170.21Z" fill="#F7F7FA"/>
<path d="M120.903 170.21H120.45V187.928H120.903V170.21Z" fill="#F7F7FA"/>
<path d="M122.261 170.21H121.808V187.928H122.261V170.21Z" fill="#F7F7FA"/>
<path d="M123.619 170.21H123.167V187.928H123.619V170.21Z" fill="#F7F7FA"/>
<path d="M125.042 170.21H124.589V187.928H125.042V170.21Z" fill="#F7F7FA"/>
<path d="M126.4 170.21H125.947V187.928H126.4V170.21Z" fill="#F7F7FA"/>
<path d="M127.758 170.21H127.306V187.928H127.758V170.21Z" fill="#F7F7FA"/>
<path d="M129.182 170.21H128.729V187.928H129.182V170.21Z" fill="#F7F7FA"/>
<path d="M130.54 170.21H130.087V187.928H130.54V170.21Z" fill="#F7F7FA"/>
<path d="M131.898 170.21H131.445V187.928H131.898V170.21Z" fill="#F7F7FA"/>
<path d="M133.321 170.21H132.868V187.928H133.321V170.21Z" fill="#F7F7FA"/>
<path d="M134.679 170.21H134.226V187.928H134.679V170.21Z" fill="#F7F7FA"/>
<path d="M136.037 170.21H135.584V187.928H136.037V170.21Z" fill="#F7F7FA"/>
<path d="M138.818 170.21H138.366V187.928H138.818V170.21Z" fill="#F7F7FA"/>
<path d="M140.177 170.21H139.724V187.928H140.177V170.21Z" fill="#F7F7FA"/>
<path d="M137.461 170.21H137.008V187.928H137.461V170.21Z" fill="#F7F7FA"/>
<path d="M143.173 170.136L140.683 178.452L141.178 178.605L143.668 170.29L143.173 170.136Z" fill="#F7F7FA"/>
<path d="M144.51 170.1L140.662 182.952L141.157 183.106L145.005 170.254L144.51 170.1Z" fill="#F7F7FA"/>
<path d="M145.893 170.146L140.686 187.533L141.18 187.687L146.388 170.299L145.893 170.146Z" fill="#F7F7FA"/>
<path d="M147.264 170.143L141.151 190.554L141.646 190.708L147.759 170.296L147.264 170.143Z" fill="#F7F7FA"/>
<path d="M148.643 170.082L142.53 190.494L143.025 190.648L149.138 170.236L148.643 170.082Z" fill="#F7F7FA"/>
<path d="M150.003 170.084L143.89 190.496L144.385 190.649L150.498 170.238L150.003 170.084Z" fill="#F7F7FA"/>
<path d="M151.364 170.086L145.251 190.498L145.746 190.652L151.859 170.24L151.364 170.086Z" fill="#F7F7FA"/>
<path d="M152.723 170.089L146.61 190.5L147.105 190.654L153.218 170.242L152.723 170.089Z" fill="#F7F7FA"/>
<path d="M154.083 170.092L147.971 190.504L148.466 190.657L154.578 170.246L154.083 170.092Z" fill="#F7F7FA"/>
<path d="M155.443 170.095L149.331 190.507L149.825 190.661L155.938 170.249L155.443 170.095Z" fill="#F7F7FA"/>
<path d="M156.777 170.066L150.646 190.541L151.14 190.694L157.272 170.22L156.777 170.066Z" fill="#F7F7FA"/>
<path d="M158.137 170.068L152.005 190.543L152.5 190.696L158.632 170.222L158.137 170.068Z" fill="#F7F7FA"/>
<path d="M159.523 170.102L153.411 190.514L153.906 190.668L160.018 170.256L159.523 170.102Z" fill="#F7F7FA"/>
<path d="M160.094 177.33L156.151 190.497L156.646 190.651L160.589 177.484L160.094 177.33Z" fill="#F7F7FA"/>
<path d="M160.053 182.072L157.461 190.563L157.956 190.719L160.547 182.229L160.053 182.072Z" fill="#F7F7FA"/>
<path d="M160.053 172.81L154.751 190.513L155.246 190.666L160.548 172.964L160.053 172.81Z" fill="#F7F7FA"/>
<path d="M160.615 190.891H140.694V169.947H160.615V190.891ZM141.212 190.365H160.098V170.54H141.276V190.365H141.212Z" fill="#F7F7FA"/>
<path d="M140.953 169.947H60.3647V170.473H140.953V169.947Z" fill="#F7F7FA"/>
<path d="M-1.85405 36.7706V36.1778C-1.85405 35.5851 -2.24212 35.0581 -2.75953 34.8606L-42.8596 20.5681C-43.7004 20.3047 -44.6059 20.3047 -45.382 20.6999L-47.7104 21.7537L-49.8447 196.095L-0.689865 194.909L3.06144 35.3216L2.2853 34.9923C1.7032 34.7947 1.05642 34.8606 0.539001 35.1899L-1.85405 36.7706Z" fill="#E1E4F4"/>
<path d="M36.111 47.836L2.60812 35.1902C2.02603 34.9926 1.37926 35.3878 1.37926 36.0464L-0.69043 194.91L37.922 194.185V50.4047C37.922 49.285 37.2105 48.2312 36.111 47.836Z" fill="#ECEEFA"/>
<path d="M6.22995 154.996L6.10059 165.864L10.434 166.061L10.5633 155.26L6.22995 154.996Z" fill="#F7F7FA"/>
<path d="M16.1259 166.325L16.2553 155.655L11.2104 155.326L11.0811 166.061L16.1259 166.325Z" fill="#F7F7FA"/>
<path d="M10.4341 166.061H11.0809L11.2102 155.326L10.5634 155.26L10.4341 166.061Z" fill="#F2F3F7"/>
<path d="M16.3198 147.948L16.4491 137.542L11.4043 136.949L11.2749 147.487L16.3198 147.948Z" fill="#F7F7FA"/>
<path d="M6.48825 136.423L6.35889 147.027L10.6923 147.422L10.8216 136.884L6.48825 136.423Z" fill="#F7F7FA"/>
<path d="M10.6929 147.422L11.275 147.488L11.4043 136.95L10.8222 136.884L10.6929 147.422Z" fill="#F2F3F7"/>
<path d="M16.5139 129.375L16.6432 119.166L11.6631 118.375L11.5337 128.716L16.5139 129.375Z" fill="#F7F7FA"/>
<path d="M6.74751 117.519L6.61816 128.057L10.8869 128.65L11.0162 118.244L6.74751 117.519Z" fill="#F7F7FA"/>
<path d="M10.8867 128.65L11.5335 128.716L11.6629 118.375L11.0161 118.243L10.8867 128.65Z" fill="#F2F3F7"/>
<path d="M16.708 111.328L16.8373 101.119L11.9218 100.131L11.7925 110.406L16.708 111.328Z" fill="#F7F7FA"/>
<path d="M6.94137 99.1433L6.81201 109.484L11.1454 110.274L11.2748 99.9995L6.94137 99.1433Z" fill="#F7F7FA"/>
<path d="M11.1455 110.275L11.7923 110.407L11.9216 100.132L11.2749 100L11.1455 110.275Z" fill="#F2F3F7"/>
<path d="M7.39448 62.5237L7.26514 72.8643L11.5985 73.984L11.7279 63.7751L7.39448 62.5237Z" fill="#F7F7FA"/>
<path d="M17.0954 75.4986L17.1601 65.3556L12.374 63.9724L12.2446 74.1813L17.0954 75.4986Z" fill="#F7F7FA"/>
<path d="M11.5981 73.9845L12.2449 74.1821L12.3743 63.9732L11.7275 63.7756L11.5981 73.9845Z" fill="#F2F3F7"/>
<path d="M7.20016 80.8997L7.0708 90.9109L11.4042 91.8989L11.5335 82.0193L7.20016 80.8997Z" fill="#F7F7FA"/>
<path d="M16.9018 93.1508L16.9665 83.403L12.1157 82.1516L11.9863 92.0312L16.9018 93.1508Z" fill="#F7F7FA"/>
<path d="M11.4043 91.8991L11.9864 92.0308L12.1158 82.1513L11.5336 82.0195L11.4043 91.8991Z" fill="#F2F3F7"/>
<path d="M15.9318 185.162L16.0611 174.558L10.9516 174.427L10.8223 185.162H15.9318Z" fill="#F7F7FA"/>
<path d="M6.03582 174.293L5.8418 185.161H10.1752L10.3692 174.425L6.03582 174.293Z" fill="#F7F7FA"/>
<path d="M10.1758 185.162H10.8226L10.9519 174.427H10.3698L10.1758 185.162Z" fill="#F2F3F7"/>
<path d="M31.2598 131.352L31.3245 121.604L26.6677 120.813L26.603 130.759L31.2598 131.352Z" fill="#F7F7FA"/>
<path d="M22.1406 120.088L22.0112 130.165L25.9566 130.692L26.0859 120.68L22.1406 120.088Z" fill="#F7F7FA"/>
<path d="M25.957 130.692L26.6038 130.758L26.6685 120.813L26.0864 120.681L25.957 130.692Z" fill="#F2F3F7"/>
<path d="M31.5189 96.5094L31.6482 87.1567L26.9914 85.9712L26.9268 95.4556L31.5189 96.5094Z" fill="#F7F7FA"/>
<path d="M22.4641 84.7854L22.3994 94.4015L26.3447 95.3236L26.4094 85.8392L22.4641 84.7854Z" fill="#F7F7FA"/>
<path d="M26.3447 95.3235L26.9268 95.4552L26.9915 85.9708L26.4094 85.8391L26.3447 95.3235Z" fill="#F2F3F7"/>
<path d="M22.2698 102.24L22.2051 112.317L26.1504 113.042L26.2151 103.096L22.2698 102.24Z" fill="#F7F7FA"/>
<path d="M31.3897 114.029L31.4544 104.15L26.8623 103.228L26.7329 113.173L31.3897 114.029Z" fill="#F7F7FA"/>
<path d="M26.1504 113.041L26.7325 113.172L26.8618 103.227L26.2151 103.095L26.1504 113.041Z" fill="#F2F3F7"/>
<path d="M30.9368 167.05L31.0015 156.71L26.3447 156.38L26.2153 166.853L30.9368 167.05Z" fill="#F7F7FA"/>
<path d="M21.7524 156.049L21.623 166.587L25.6331 166.785L25.6977 156.312L21.7524 156.049Z" fill="#F7F7FA"/>
<path d="M25.6333 166.786L26.2154 166.851L26.3448 156.379L25.698 156.313L25.6333 166.786Z" fill="#F2F3F7"/>
<path d="M30.8071 185.227L30.8718 174.952L26.1503 174.821L26.021 185.227H30.8071Z" fill="#F7F7FA"/>
<path d="M21.5585 174.689L21.4292 185.227H25.4392L25.5039 174.821L21.5585 174.689Z" fill="#F7F7FA"/>
<path d="M25.439 185.227H26.0211L26.1504 174.821H25.5036L25.439 185.227Z" fill="#F2F3F7"/>
<path d="M31.066 149.266L31.1953 139.123L26.4739 138.596L26.4092 148.871L31.066 149.266Z" fill="#F7F7FA"/>
<path d="M21.9467 138.136L21.8174 148.476L25.7627 148.806L25.8921 138.531L21.9467 138.136Z" fill="#F7F7FA"/>
<path d="M25.7627 148.806L26.4095 148.871L26.4742 138.597L25.8921 138.531L25.7627 148.806Z" fill="#F2F3F7"/>
<path d="M31.8421 62.6552L31.9068 52.8415L27.3793 51.3267L27.25 61.2062L31.8421 62.6552Z" fill="#F7F7FA"/>
<path d="M22.852 49.7458L22.7227 59.823L26.668 61.0744L26.7326 51.0631L22.852 49.7458Z" fill="#F7F7FA"/>
<path d="M27.3799 51.3264L26.7331 51.063L26.6685 61.0743L27.2506 61.206L27.3799 51.3264Z" fill="#F2F3F7"/>
<path d="M7.65278 44.6741L7.52344 55.0147L11.8568 56.3978L11.9215 46.1231L7.65278 44.6741Z" fill="#F7F7FA"/>
<path d="M12.4395 56.596L17.2256 58.1109L17.3549 47.902L12.5688 46.3213L12.4395 56.596Z" fill="#F7F7FA"/>
<path d="M11.9211 46.1228L11.8564 56.3975L12.4386 56.5951L12.5679 46.3204L11.9211 46.1228Z" fill="#F2F3F7"/>
<path d="M31.7127 79.5162L31.7774 69.7025L27.1853 68.3853L27.1206 78.2648L31.7127 79.5162Z" fill="#F7F7FA"/>
<path d="M22.6577 67.002L22.5283 77.0132L26.4736 78.1329L26.603 68.1875L22.6577 67.002Z" fill="#F7F7FA"/>
<path d="M26.4741 78.1324L27.1209 78.2642L27.1856 68.3846L26.6035 68.187L26.4741 78.1324Z" fill="#F2F3F7"/>
<path d="M88.2409 193.46L37.9219 191.748V186.479L88.2409 188.191V193.46Z" fill="#D0D5F4"/>
<path d="M140.953 187.927L88.2407 188.191V193.46L140.953 191.682V187.927Z" fill="#D0D5F4"/>
<path d="M-112.841 199.19L-111.224 164.282L60.753 167.839L60.3649 194.843H60.1062L-112.841 199.19ZM-110.707 164.875L-112.259 198.597L59.7828 194.316L60.1709 168.431L-110.707 164.875Z" fill="#F7F7FA"/>
<path d="M0.109445 166.91L-0.322754 196.084L0.259301 196.093L0.691499 166.919L0.109445 166.91Z" fill="#F7F7FA"/>
<path d="M2.16755 166.889L1.73633 195.998L2.31838 196.007L2.74961 166.898L2.16755 166.889Z" fill="#F7F7FA"/>
<path d="M4.2247 166.935L3.79443 195.978L4.37649 195.987L4.80676 166.944L4.2247 166.935Z" fill="#F7F7FA"/>
<path d="M6.2436 166.988L5.87646 195.899L6.45852 195.907L6.82565 166.995L6.2436 166.988Z" fill="#F7F7FA"/>
<path d="M8.30136 167.032L7.93506 195.878L8.51711 195.885L8.88342 167.04L8.30136 167.032Z" fill="#F7F7FA"/>
<path d="M10.3329 167.072L10.0283 195.852L10.6104 195.858L10.9149 167.078L10.3329 167.072Z" fill="#F7F7FA"/>
<path d="M12.3788 167.128L12.0757 195.776L12.6577 195.782L12.9609 167.134L12.3788 167.128Z" fill="#F7F7FA"/>
<path d="M14.4245 167.154L14.1831 195.673L14.7652 195.678L15.0066 167.159L14.4245 167.154Z" fill="#F7F7FA"/>
<path d="M16.5781 167.216L16.1548 195.667L16.7368 195.676L17.1601 167.225L16.5781 167.216Z" fill="#F7F7FA"/>
<path d="M18.7769 195.633H18.1948L18.5829 167.245H19.165L18.7769 195.633Z" fill="#F7F7FA"/>
<path d="M20.6562 167.315L20.2959 195.568L20.878 195.576L21.2383 167.323L20.6562 167.315Z" fill="#F7F7FA"/>
<path d="M22.715 167.297L22.3555 195.483L22.9375 195.491L23.297 167.304L22.715 167.297Z" fill="#F7F7FA"/>
<path d="M24.7371 167.417L24.439 195.472L25.021 195.478L25.3192 167.423L24.7371 167.417Z" fill="#F7F7FA"/>
<path d="M26.7955 167.395L26.498 195.385L27.0801 195.391L27.3776 167.402L26.7955 167.395Z" fill="#F7F7FA"/>
<path d="M28.8423 167.487L28.6055 195.348L29.1876 195.353L29.4244 167.492L28.8423 167.487Z" fill="#F7F7FA"/>
<path d="M31.0658 195.304H30.5483L31.0658 167.509H31.5832L31.0658 195.304Z" fill="#F7F7FA"/>
<path d="M33.0923 167.569L32.6094 195.292L33.1914 195.303L33.6743 167.58L33.0923 167.569Z" fill="#F7F7FA"/>
<path d="M35.151 167.614L34.6704 195.205L35.2524 195.216L35.733 167.624L35.151 167.614Z" fill="#F7F7FA"/>
<path d="M37.129 167.643L36.7095 195.171L37.2915 195.18L37.7111 167.652L37.129 167.643Z" fill="#F7F7FA"/>
<path d="M39.1866 167.688L38.769 195.085L39.3511 195.094L39.7686 167.697L39.1866 167.688Z" fill="#F7F7FA"/>
<path d="M41.2077 167.744L40.8506 195.074L41.4326 195.082L41.7897 167.751L41.2077 167.744Z" fill="#F7F7FA"/>
<path d="M43.266 167.79L42.9106 194.989L43.4927 194.996L43.848 167.797L43.266 167.79Z" fill="#F7F7FA"/>
<path d="M45.335 167.758L44.9805 194.891L45.5625 194.899L45.917 167.766L45.335 167.758Z" fill="#F7F7FA"/>
<path d="M47.3323 167.836L47.0376 194.903L47.6196 194.91L47.9143 167.842L47.3323 167.836Z" fill="#F7F7FA"/>
<path d="M49.4282 167.913L49.1343 194.914L49.7163 194.921L50.0103 167.919L49.4282 167.913Z" fill="#F7F7FA"/>
<path d="M51.4503 167.893L51.2163 194.766L51.7984 194.771L52.0324 167.899L51.4503 167.893Z" fill="#F7F7FA"/>
<path d="M53.5083 168.005L53.2754 194.746L53.8575 194.751L54.0904 168.01L53.5083 168.005Z" fill="#F7F7FA"/>
<path d="M55.6278 168.013L55.2793 194.686L55.8613 194.693L56.2098 168.021L55.6278 168.013Z" fill="#F7F7FA"/>
<path d="M57.6498 168.132L57.3608 194.673L57.9429 194.679L58.2318 168.139L57.6498 168.132Z" fill="#F7F7FA"/>
<path d="M59.7091 168.114L59.4209 194.589L60.0029 194.595L60.2912 168.121L59.7091 168.114Z" fill="#F7F7FA"/>
</svg>
